<svg width="17" height="18" viewBox="0 0 17 18" fill="none" xmlns="http://www.w3.org/2000/svg">
<path d="M3.73326 10.757C4.01582 9.1795 4.65944 8.3313 4.83212 8.1252V8.11727C4.91061 8.02214 4.98126 7.9508 5.0519 7.88738C5.0362 7.87946 5.0205 7.87153 5.0048 7.8636C4.61235 7.68921 4.11786 7.46725 3.53703 7.40383C2.94835 7.34042 2.35967 7.4514 1.74745 7.72884C1.3079 7.92702 0.954692 8.26788 0.703523 8.73558V8.72765C0.585787 8.92583 0.468051 9.17157 0.358165 9.44902C0.256127 9.70268 0.193335 9.94842 0.14624 10.1625L0.161938 10.2497C0.750617 13.2619 2.90911 15.7669 5.8211 16.7419C3.3879 15.1961 3.43499 12.4058 3.73326 10.757Z" fill="white" fill-opacity="0.2"/>
<path d="M16.1583 4.88288C16.1583 5.11277 16.1504 5.34265 16.1269 5.58046C15.7737 8.96532 12.7753 11.4148 9.41596 11.066C7.61852 10.8757 6.08796 9.91657 5.09898 8.54519C4.88705 8.83056 4.41611 9.58363 4.19634 10.844C3.97656 12.0648 3.87453 14.1417 5.20102 15.6161C5.20102 15.6161 5.20102 15.6161 5.20886 15.6241C5.358 15.7905 5.53068 15.9491 5.71905 16.0997C5.95452 16.2979 6.21354 16.496 6.51181 16.6863C6.76298 16.8448 7.0063 16.9796 7.23392 17.0906C7.3595 17.1064 7.48509 17.1302 7.61852 17.1381C12.2887 17.6296 16.4644 14.2051 16.9589 9.49644C17.1159 7.84761 16.8176 6.27012 16.1583 4.88288Z" fill="white" fill-opacity="0.2"/>
<path d="M10.9466 6.5874C10.6719 6.43678 9.56515 5.80262 9.16485 5.23187C9.03927 5.00991 9.00787 4.81173 8.96862 4.57392V4.58185C8.96862 4.55807 8.96078 4.54221 8.96078 4.51843C8.95293 4.46294 8.94508 4.40745 8.93723 4.34403C8.70961 3.31352 7.5558 2.54459 7.5558 2.54459H7.60289C7.57149 2.52874 7.5558 2.52081 7.5558 2.52081L7.56364 2.51288L9.07066 1.16528C8.325 1.02259 7.48515 1.26833 6.88863 1.51407C7.18689 0.713436 8.03459 0.126833 8.23081 0C4.04727 0.126833 0.49165 3.36108 0.0442542 7.68926C-0.0028401 8.18074 -0.0106892 8.65636 0.012858 9.13198C0.256179 8.39477 0.703574 7.66548 1.54342 7.28498C3.63127 6.33373 4.997 7.42766 5.72697 7.62584C5.75051 7.63377 5.77406 7.6417 5.78976 7.64962C6.23715 7.76853 6.83368 8.20452 8.18372 8.40269C10.5149 8.75149 11.2605 7.39596 11.3233 6.9996C11.3783 6.69837 11.08 6.61118 10.9466 6.5874ZM7.20259 4.05866L7.21829 4.03488C7.34387 4.12208 7.5087 4.24891 7.66568 4.43916C7.86191 4.6849 7.96395 4.92271 8.01889 5.08125V5.08918C6.62961 4.85137 7.1084 4.17757 7.20259 4.05866Z" fill="white" fill-opacity="0.2"/>
</svg>
