<svg width="16" height="17" viewBox="0 0 16 17" fill="none" xmlns="http://www.w3.org/2000/svg">
<path d="M7.9646 10.0636C8.9311 10.0636 9.7146 9.2801 9.7146 8.3136C9.7146 7.3471 8.9311 6.5636 7.9646 6.5636C6.9981 6.5636 6.2146 7.3471 6.2146 8.3136C6.2146 9.2801 6.9981 10.0636 7.9646 10.0636Z" stroke="#B69FFF"/>
<path d="M2.18867 2.95861L2.40742 2.57886C2.32154 2.52921 2.22133 2.51022 2.12323 2.525C2.02514 2.53979 1.93498 2.58747 1.86755 2.66024L2.18867 2.95861ZM0.439549 5.98961L0.0212985 5.86011C-0.00781288 5.9548 -0.00393087 6.05656 0.0323094 6.14875C0.0685498 6.24094 0.135003 6.3181 0.220799 6.36761L0.439549 5.98961ZM0.437799 10.6367L0.219049 10.2579C0.133068 10.3074 0.0664882 10.3847 0.0302366 10.4771C-0.0060149 10.5695 -0.00978376 10.6714 0.0195486 10.7662L0.437799 10.6367ZM2.1878 13.6677L1.86667 13.9652C1.9341 14.038 2.02426 14.0857 2.12236 14.1005C2.22046 14.1153 2.32066 14.0963 2.40655 14.0466L2.1878 13.6677ZM6.2128 15.9909H5.7753C5.77525 16.0902 5.80901 16.1866 5.87103 16.2642C5.93305 16.3418 6.01964 16.396 6.11655 16.4179L6.2128 15.9909ZM9.71367 15.9926L9.8108 16.4196C9.90755 16.3976 9.99393 16.3433 10.0558 16.2657C10.1176 16.1881 10.1513 16.0918 10.1512 15.9926H9.71455H9.71367ZM13.7395 13.6686L13.5208 14.0475C13.6067 14.0971 13.7069 14.1161 13.805 14.1013C13.9031 14.0866 13.9932 14.0389 14.0607 13.9661L13.7395 13.6686ZM15.4878 10.6359L15.906 10.7654C15.9352 10.6707 15.9313 10.5689 15.895 10.4767C15.8588 10.3845 15.7923 10.3074 15.7065 10.2579L15.4878 10.6359ZM15.4895 5.98874L15.7083 6.36761C15.7943 6.31806 15.8609 6.24075 15.8971 6.14838C15.9334 6.056 15.9371 5.95404 15.9078 5.85924L15.4895 5.98874ZM13.7395 2.95686L14.0607 2.65936C13.9932 2.5866 13.9031 2.53891 13.805 2.52413C13.7069 2.50934 13.6067 2.52833 13.5208 2.57799L13.7395 2.95686ZM9.71455 0.635487H10.152C10.1519 0.536414 10.1182 0.440309 10.0564 0.362898C9.99455 0.285488 9.90827 0.231357 9.81167 0.209363L9.71455 0.635487ZM6.21455 0.633738L6.11742 0.206738C6.02051 0.228593 5.93393 0.28278 5.87191 0.360386C5.80989 0.437991 5.77612 0.534394 5.77617 0.633738H6.21367H6.21455ZM0.857799 6.11911C1.18609 5.05259 1.75044 4.07373 2.50892 3.25524L1.86755 2.66024C1.01955 3.57495 0.38851 4.66807 0.0212985 5.86011L0.857799 6.11911ZM1.5228 12.0324C1.24472 11.5507 1.02138 11.0394 0.856924 10.5081L0.0204235 10.7671C0.204758 11.3607 0.454807 11.9318 0.765924 12.4699L1.5228 12.0324ZM2.5098 13.3711C2.13225 12.963 1.80062 12.5139 1.5228 12.0324L0.765924 12.4699C1.07623 13.0081 1.44574 13.51 1.86755 13.9661L2.5098 13.3711ZM9.61742 15.5674C8.52936 15.8151 7.39947 15.8145 6.31167 15.5656L6.11742 16.4179C7.33302 16.6961 8.59568 16.697 9.81167 16.4205L9.61742 15.5674ZM15.0713 10.5081C14.743 11.5746 14.1787 12.5535 13.4202 13.372L14.0615 13.967C14.9095 13.0523 15.5406 11.9583 15.9078 10.7662L15.0713 10.5081ZM14.4063 4.59486C14.6898 5.08749 14.9112 5.59849 15.073 6.11911L15.9087 5.86011C15.7244 5.26652 15.4744 4.69539 15.1632 4.15736L14.4063 4.59486ZM13.4193 3.25611C13.7971 3.66401 14.1288 4.11308 14.4063 4.59486L15.1632 4.15736C14.8529 3.61911 14.4834 3.11724 14.0615 2.66111L13.4193 3.25611ZM6.31167 1.05986C7.39974 0.812153 8.52962 0.812751 9.61742 1.06161L9.81167 0.209363C8.59608 -0.0688986 7.33341 -0.0697958 6.11742 0.206738L6.31167 1.05986ZM6.65205 2.25161V0.632863H5.77705V2.25161H6.65205ZM3.8083 3.38736L2.40742 2.57886L1.96992 3.33574L3.36992 4.14511L3.8083 3.38736ZM1.6208 9.44936L0.219049 10.2579L0.657423 11.0156L2.05742 10.2071L1.6208 9.44936ZM2.0583 6.41836L0.658299 5.61074L0.220799 6.36849L1.6208 7.17611L2.0583 6.41836ZM6.65205 15.9909V14.3747H5.77705V15.9909H6.65205ZM3.3708 12.4804L1.96992 13.2889L2.40742 14.0466L3.80742 13.2381L3.3708 12.4804ZM13.9592 13.2897L12.5583 12.4804L12.1208 13.239L13.5208 14.0475L13.9592 13.2897ZM10.152 15.9935V14.3747H9.27705V15.9935H10.152ZM15.2717 5.60986L13.8708 6.41836L14.3083 7.17611L15.7083 6.36761L15.2717 5.60986ZM15.7074 10.257L14.3083 9.45111L13.8708 10.2089L15.2708 11.0165L15.7083 10.2587L15.7074 10.257ZM10.152 2.25161V0.635487H9.27705V2.25161H10.152ZM13.5217 2.57886L12.1208 3.38824L12.5583 4.14599L13.9592 3.33661L13.5217 2.57886ZM9.27705 2.25161C9.27705 3.93511 11.0997 4.98774 12.5583 4.14599L12.1208 3.38824C11.9212 3.50347 11.6948 3.56412 11.4643 3.56408C11.2339 3.56404 11.0075 3.50332 10.8079 3.38803C10.6084 3.27273 10.4427 3.10693 10.3276 2.90728C10.2124 2.70764 10.1519 2.48208 10.152 2.25161H9.27705ZM13.8708 6.41924C12.4122 7.26099 12.4122 9.36624 13.8708 10.208L14.3083 9.45024C14.1088 9.33504 13.9431 9.16935 13.8279 8.96983C13.7127 8.77032 13.6521 8.54399 13.6521 8.31361C13.6521 8.08323 13.7127 7.85691 13.8279 7.65739C13.9431 7.45787 14.1088 7.29219 14.3083 7.17699L13.8708 6.41924ZM12.5583 12.4812C11.0997 11.6395 9.27705 12.6904 9.27705 14.3747H10.152C10.1521 14.1443 10.2127 13.9189 10.3279 13.7194C10.4431 13.5199 10.6088 13.3542 10.8083 13.239C11.0078 13.1238 11.2342 13.0631 11.4646 13.0631C11.6949 13.0631 11.9213 13.1238 12.1208 13.239L12.5583 12.4812ZM6.65205 14.3747C6.65205 12.6912 4.82942 11.6395 3.3708 12.4812L3.8083 13.239C4.00789 13.1238 4.2343 13.0631 4.46476 13.0631C4.69522 13.0632 4.92161 13.1239 5.12116 13.2392C5.32071 13.3545 5.48639 13.5203 5.60152 13.7199C5.71666 13.9196 5.7772 14.146 5.77705 14.3765H6.65205V14.3747ZM2.0583 10.208C3.51692 9.36624 3.51692 7.26099 2.0583 6.41924L1.6208 7.17699C2.4958 7.68186 2.4958 8.94361 1.6208 9.44936L2.0583 10.208ZM5.77705 2.25161C5.77689 2.48193 5.71613 2.70815 5.60087 2.90754C5.4856 3.10694 5.3199 3.2725 5.12041 3.38759C4.92091 3.50268 4.69464 3.56324 4.46432 3.5632C4.23401 3.56316 4.00776 3.50252 3.8083 3.38736L3.3708 4.14599C4.82942 4.98774 6.65205 3.93599 6.65205 2.25161H5.77705Z" fill="#B69FFF"/>
</svg>
