<svg width="51" height="40" viewBox="0 0 51 40" fill="none" xmlns="http://www.w3.org/2000/svg">
<path fill-rule="evenodd" clip-rule="evenodd" d="M26.9936 0.777463C26.8257 0.537428 26.6023 0.341399 26.3422 0.206041C26.0822 0.0706834 25.7933 0 25.5 0C25.2067 0 24.9178 0.0706834 24.6578 0.206041C24.3977 0.341399 24.1743 0.537428 24.0064 0.777463L12.5023 17.1835L3.111 7.80603C2.85626 7.55112 2.53142 7.37744 2.17767 7.30702C1.82392 7.2366 1.45718 7.27261 1.12396 7.41048C0.790734 7.54835 0.506026 7.78188 0.305929 8.08145C0.105832 8.38103 -0.000642471 8.73316 2.91666e-06 9.09321V32.7278C2.91666e-06 34.6565 0.767603 36.5062 2.13394 37.87C3.50028 39.2338 5.35342 40 7.28572 40H43.7143C45.6466 40 47.4997 39.2338 48.8661 37.87C50.2324 36.5062 51 34.6565 51 32.7278V9.09321C51.0006 8.73316 50.8942 8.38103 50.6941 8.08145C50.494 7.78188 50.2093 7.54835 49.876 7.41048C49.5428 7.27261 49.1761 7.2366 48.8223 7.30702C48.4686 7.37744 48.1437 7.55112 47.889 7.80603L38.4977 17.1835L26.9936 0.777463Z" fill="white"/>
</svg>
