<svg width="18" height="18" viewBox="0 0 18 18" fill="none" xmlns="http://www.w3.org/2000/svg">
<path d="M10.538 17.7631H1.72259C1.32799 17.7626 0.949533 17.6041 0.670504 17.3219C0.391474 17.0397 0.23426 16.657 0.23426 16.258V1.74204C0.23478 1.34299 0.391474 0.960253 0.670504 0.678073C0.949533 0.395894 1.32799 0.237431 1.72259 0.236904H10.5375C10.9321 0.237431 11.3106 0.395894 11.5896 0.678073C11.8686 0.960253 12.0253 1.34299 12.0259 1.74204V5.92998C12.0259 6.00842 11.9951 6.08371 11.9405 6.13898C11.8858 6.19426 11.8114 6.22532 11.7338 6.22532C11.6562 6.22532 11.5818 6.19426 11.5271 6.13898C11.4725 6.08371 11.4418 6.00842 11.4418 5.92998V1.74204C11.4412 1.49987 11.346 1.26718 11.1768 1.09608C11.0076 0.924454 10.7775 0.828113 10.538 0.828113H1.72259C1.48312 0.828113 1.25303 0.92498 1.08384 1.09608C0.914134 1.2677 0.818868 1.49987 0.818868 1.74204V16.258C0.819389 16.5001 0.914654 16.7328 1.08384 16.9039C1.25355 17.0755 1.48312 17.1719 1.72259 17.1719H10.5375C10.777 17.1714 11.0071 17.075 11.1763 16.9039C11.3455 16.7328 11.4407 16.5001 11.4412 16.258V12.0648C11.4412 11.9863 11.472 11.911 11.5266 11.8558C11.5813 11.8005 11.6557 11.7694 11.7333 11.7694C11.8109 11.7694 11.8853 11.8005 11.94 11.8558C11.9946 11.911 12.0253 11.9863 12.0253 12.0648V16.258C12.0248 16.657 11.8681 17.0397 11.5891 17.3219C11.3106 17.6036 10.9326 17.7626 10.538 17.7631ZM15.7896 8.99921C15.7896 8.96025 15.7823 8.92182 15.7672 8.88602C15.7527 8.85022 15.7308 8.81758 15.7037 8.79021C15.6767 8.76283 15.6444 8.74125 15.609 8.72598C15.5736 8.71124 15.5356 8.70334 15.4971 8.70334H7.40105C7.32348 8.70334 7.24904 8.7344 7.19438 8.78968C7.13972 8.84496 7.109 8.92024 7.109 8.99868C7.109 9.07713 7.13972 9.15241 7.19438 9.20769C7.24904 9.26296 7.32348 9.29402 7.40105 9.29402H15.4976C15.5361 9.29402 15.5741 9.28665 15.6095 9.27139C15.6449 9.25665 15.6772 9.23454 15.7043 9.20716C15.7313 9.17978 15.7527 9.14714 15.7678 9.11135C15.7818 9.07607 15.7896 9.03764 15.7896 8.99921ZM15.7037 11.7083L17.3305 10.0632C17.609 9.78047 17.7657 9.39774 17.7657 8.99868C17.7657 8.59963 17.609 8.2169 17.3305 7.93419L15.7037 6.28902C15.6767 6.26165 15.6444 6.24006 15.609 6.2248C15.5736 6.21005 15.5356 6.20216 15.4971 6.20216C15.4585 6.20216 15.4205 6.21005 15.3851 6.2248C15.3497 6.23954 15.3175 6.26165 15.2904 6.28902C15.2633 6.3164 15.242 6.34904 15.2269 6.38484C15.2123 6.42064 15.2045 6.45907 15.2045 6.49803C15.2045 6.53698 15.2118 6.57541 15.2269 6.61121C15.2415 6.64701 15.2633 6.67965 15.2904 6.70703L16.9172 8.3522C17.0864 8.52382 17.1817 8.75651 17.1817 8.99868C17.1817 9.24085 17.0864 9.47355 16.9172 9.64517L15.2904 11.2903C15.2628 11.3177 15.2409 11.3504 15.2264 11.3862C15.2113 11.422 15.2035 11.4604 15.2035 11.4993C15.2035 11.5383 15.2107 11.5767 15.2253 11.6131C15.2399 11.6489 15.2618 11.682 15.2888 11.7094C15.3159 11.7368 15.3487 11.7589 15.3841 11.7736C15.4195 11.7884 15.458 11.7963 15.4965 11.7957C15.5351 11.7957 15.5731 11.7878 15.6085 11.7726C15.6449 11.7584 15.6772 11.7362 15.7037 11.7083Z" fill="white" fill-opacity="0.75"/>
<path fill-rule="evenodd" clip-rule="evenodd" d="M1.72228 4.01653e-07L1.72259 0L10.5378 2.00826e-07C10.9943 0.000609408 11.4323 0.183922 11.7553 0.510557C12.0782 0.837192 12.2595 1.2801 12.2601 1.74173V5.92998C12.2601 6.07089 12.205 6.20654 12.1061 6.3065C12.0073 6.40647 11.8731 6.46223 11.7338 6.46223C11.5945 6.46223 11.4603 6.40647 11.3615 6.3065C11.2626 6.20654 11.2075 6.07089 11.2075 5.92998L11.2075 1.74255C11.2075 1.74244 11.2075 1.74233 11.2075 1.74222C11.207 1.56257 11.1363 1.39013 11.0111 1.26359L11.0109 1.26334C10.8858 1.1364 10.7154 1.06502 10.538 1.06502H1.72259C1.54554 1.06502 1.37495 1.13672 1.24949 1.26359C1.12358 1.39093 1.05313 1.56289 1.05313 1.74204V16.2577C1.05358 16.4374 1.12434 16.6098 1.24949 16.7364C1.3754 16.8637 1.54544 16.935 1.72259 16.935H10.537C10.7148 16.9346 10.8854 16.863 11.0106 16.7364C11.1358 16.6099 11.2065 16.4374 11.207 16.2578C11.207 16.2577 11.207 16.2576 11.207 16.2574L11.207 12.0648C11.207 11.9238 11.2621 11.7882 11.361 11.6882C11.4598 11.5883 11.594 11.5325 11.7333 11.5325C11.8726 11.5325 12.0068 11.5883 12.1056 11.6882C12.2045 11.7882 12.2596 11.9238 12.2596 12.0648V16.2583C12.259 16.7199 12.0777 17.1628 11.7547 17.4894C11.4324 17.8154 10.9951 17.9994 10.5384 18H1.72228C1.26581 17.9994 0.827845 17.8161 0.504857 17.4894C0.182025 17.163 0 16.72 0 16.258L1.98584e-07 1.74173C0.000602406 1.2801 0.181868 0.837192 0.504857 0.510557C0.827845 0.183922 1.26581 0.000609408 1.72228 4.01653e-07ZM10.5374 0.473809H1.72276C1.39009 0.474291 1.07119 0.6079 0.83615 0.84559C0.601114 1.08328 0.468997 1.40578 0.46852 1.7422V16.258C0.46852 16.594 0.600924 16.9165 0.83615 17.1544C1.07122 17.3921 1.39018 17.5257 1.7229 17.5262H10.5377C10.8702 17.5257 11.1887 17.3918 11.4234 17.1544C11.6585 16.9167 11.7906 16.5941 11.7911 16.2577V12.0648C11.7911 12.0488 11.7848 12.0339 11.7743 12.0233C11.7638 12.0127 11.7491 12.0063 11.7333 12.0063C11.7175 12.0063 11.7027 12.0127 11.6923 12.0233C11.6818 12.0339 11.6755 12.0488 11.6755 12.0648V16.258L11.6755 16.2585C11.6749 16.563 11.5551 16.8559 11.3419 17.0714C11.1287 17.287 10.8392 17.4081 10.538 17.4088H1.72259C1.42081 17.4088 1.1317 17.2874 0.918195 17.0714C0.705024 16.8559 0.585264 16.563 0.584609 16.2585L0.584608 16.258V1.74204C0.584608 1.43685 0.704688 1.14448 0.918195 0.928561C1.13111 0.713243 1.42071 0.591208 1.72259 0.591208H10.538C10.8396 0.591208 11.1293 0.71245 11.3425 0.928667C11.5557 1.14424 11.6754 1.437 11.676 1.74152L11.676 1.74204L11.676 5.92998C11.676 5.94596 11.6823 5.96088 11.6928 5.97147C11.7033 5.98206 11.718 5.98842 11.7338 5.98842C11.7496 5.98842 11.7644 5.98206 11.7748 5.97147C11.7853 5.96088 11.7916 5.94596 11.7916 5.92998V1.74235C11.7912 1.40587 11.659 1.08331 11.424 0.84559C11.1889 0.6079 10.87 0.474291 10.5374 0.473809ZM15.2959 6.00574C15.3586 5.97964 15.4269 5.96525 15.4971 5.96525C15.5673 5.96525 15.6355 5.97964 15.6982 6.00574L15.6995 6.0063L15.7009 6.00688C15.7623 6.03335 15.82 6.07153 15.8694 6.12151L17.4962 7.76668L17.4965 7.76699C17.8186 8.094 18 8.53681 18 8.99868C18 9.46056 17.8186 9.90337 17.4965 10.2304L17.4962 10.2307L15.8708 11.8745C15.8225 11.9247 15.7636 11.9653 15.6967 11.9921C15.6339 12.0186 15.5665 12.0324 15.4981 12.0326C15.4267 12.0334 15.3575 12.0187 15.2949 11.9927C15.2309 11.966 15.1721 11.9264 15.1232 11.8769C15.0742 11.8274 15.0351 11.768 15.0087 11.7033L15.0085 11.7027L15.0083 11.7021C14.9822 11.6371 14.9692 11.5684 14.9692 11.4993C14.9692 11.4288 14.9833 11.3592 15.0103 11.2946C15.037 11.2296 15.0764 11.171 15.1254 11.1221C15.1257 11.1218 15.126 11.1215 15.1263 11.1212L16.7513 9.47791C16.8768 9.3506 16.9474 9.17801 16.9474 8.99868C16.9474 8.81935 16.8768 8.64677 16.7513 8.51946L15.1247 6.87455C15.077 6.82626 15.0376 6.76806 15.0108 6.70278C14.983 6.63621 14.9702 6.56644 14.9702 6.49803C14.9702 6.42703 14.9845 6.35802 15.0103 6.29464L15.0108 6.29327L15.0114 6.2919C15.0376 6.22984 15.0753 6.17148 15.1247 6.12151C15.1728 6.07288 15.2308 6.03284 15.2959 6.00574ZM15.4971 6.43906C15.4902 6.43906 15.4825 6.44047 15.4743 6.44386C15.4686 6.44623 15.4621 6.45041 15.456 6.45654C15.4516 6.46107 15.4469 6.46755 15.443 6.47636C15.44 6.48409 15.4388 6.49148 15.4388 6.49803C15.4388 6.50706 15.4404 6.51366 15.4424 6.51828L15.4429 6.51964L15.4435 6.52101C15.4458 6.52678 15.45 6.53338 15.456 6.53951L17.0831 8.18494C17.296 8.40088 17.4159 8.69368 17.4159 8.99868C17.4159 9.30369 17.296 9.59649 17.0831 9.81243L15.4553 11.4587L15.4545 11.4594C15.4491 11.4648 15.4453 11.4707 15.443 11.4764L15.4424 11.4777L15.4418 11.4791C15.4391 11.4857 15.4377 11.4925 15.4377 11.4993C15.4377 11.508 15.4393 11.5159 15.4422 11.5234C15.445 11.5301 15.4494 11.5368 15.4545 11.5419C15.4597 11.5471 15.4665 11.5517 15.4733 11.5546C15.4811 11.5578 15.4883 11.5589 15.4934 11.5589L15.495 11.5588H15.4965C15.5033 11.5588 15.5101 11.5575 15.5166 11.5547L15.5203 11.553L15.5242 11.5515C15.5276 11.5502 15.5313 11.5479 15.5349 11.5441L15.5365 11.5424L17.1646 9.89597L17.1648 9.89577C17.3995 9.65738 17.5315 9.33482 17.5315 8.99868C17.5315 8.66255 17.3995 8.33998 17.1648 8.1016L17.1646 8.1014L15.5381 6.45654C15.5336 6.45201 15.5272 6.44727 15.5185 6.44332C15.5108 6.44032 15.5035 6.43906 15.4971 6.43906ZM7.02873 8.62217C7.12758 8.5222 7.26171 8.46644 7.40105 8.46644H15.4971C15.5673 8.46644 15.6355 8.48082 15.6982 8.50692L15.6995 8.50748L15.7009 8.50807C15.7623 8.53453 15.82 8.57271 15.8694 8.62269C15.9171 8.67098 15.9565 8.72919 15.9833 8.79448C16.0112 8.86104 16.0239 8.93081 16.0239 8.99921C16.0239 9.06963 16.0097 9.13804 15.985 9.19989L15.9842 9.2021L15.9832 9.20428C15.9571 9.26634 15.9193 9.3247 15.8699 9.37468C15.8221 9.42297 15.7646 9.46279 15.7 9.48989C15.6342 9.51805 15.5652 9.53093 15.4976 9.53093H7.40105C7.26171 9.53093 7.12758 9.47517 7.02873 9.3752C6.92988 9.27524 6.87474 9.13959 6.87474 8.99868C6.87474 8.85778 6.92988 8.72213 7.02873 8.62217ZM7.40105 8.94025C7.38525 8.94025 7.3705 8.94661 7.36002 8.9572C7.34955 8.96779 7.34326 8.98271 7.34326 8.99868C7.34326 9.01466 7.34955 9.02958 7.36002 9.04017C7.3705 9.05076 7.38525 9.05712 7.40105 9.05712H15.4976C15.5065 9.05712 15.513 9.05544 15.5176 9.05347L15.519 9.05289L15.5203 9.05233C15.526 9.04995 15.5326 9.04577 15.5386 9.03964C15.543 9.03525 15.5475 9.02904 15.5513 9.02065C15.5542 9.01272 15.5554 9.00512 15.5554 8.99921C15.5554 8.99017 15.5537 8.98357 15.5518 8.97896L15.5512 8.97759L15.5506 8.97622C15.5483 8.97046 15.5441 8.96385 15.5381 8.95772C15.5336 8.95319 15.5272 8.94846 15.5185 8.94451C15.5108 8.94151 15.5035 8.94025 15.4971 8.94025H7.40105Z" fill="white" fill-opacity="0.75"/>
</svg>
