<svg width="19" height="20" viewBox="0 0 19 20" fill="none" xmlns="http://www.w3.org/2000/svg">
<path d="M4.17235 12.5061C4.48816 10.743 5.2075 9.79504 5.40049 9.56469V9.55583C5.48822 9.44951 5.56717 9.36978 5.64612 9.2989C5.62858 9.29004 5.61103 9.28118 5.59349 9.27232C5.15487 9.07741 4.6022 8.82934 3.95304 8.75846C3.2951 8.68758 2.63717 8.81162 1.95291 9.1217C1.46166 9.3432 1.06689 9.72416 0.786175 10.2469V10.238C0.654588 10.4595 0.523001 10.7342 0.400187 11.0443C0.286145 11.3278 0.215965 11.6024 0.16333 11.8416L0.180875 11.9391C0.83881 15.3058 3.25124 18.1054 6.50583 19.1951C3.78636 17.4675 3.83899 14.3489 4.17235 12.5061Z" fill="white"/>
<path d="M18.0593 5.9408C18.0593 6.19773 18.0505 6.45466 18.0242 6.72045C17.6294 10.5035 14.2783 13.2412 10.5237 12.8513C8.51481 12.6387 6.80418 11.5667 5.69885 10.034C5.46199 10.3529 4.93565 11.1946 4.69002 12.6033C4.44439 13.9677 4.33035 16.2889 5.81289 17.9368C5.81289 17.9368 5.81289 17.9368 5.82167 17.9456C5.98834 18.1317 6.18134 18.3089 6.39188 18.4772C6.65505 18.6987 6.94454 18.9202 7.2779 19.1328C7.55861 19.31 7.83056 19.4607 8.08496 19.5847C8.22532 19.6024 8.36568 19.629 8.51481 19.6378C13.7344 20.1871 18.4014 16.3598 18.9541 11.0971C19.1295 9.25431 18.7961 7.49124 18.0593 5.9408Z" fill="white"/>
<path d="M12.2344 7.84578C11.9274 7.67745 10.6905 6.96868 10.2431 6.33078C10.1027 6.08271 10.0676 5.86122 10.0238 5.59543V5.60429C10.0238 5.57771 10.015 5.55999 10.015 5.53341C10.0062 5.47139 9.99744 5.40937 9.98867 5.3385C9.73427 4.18674 8.44471 3.32735 8.44471 3.32735H8.49735C8.46226 3.30963 8.44471 3.30077 8.44471 3.30077L8.45349 3.29191L10.1378 1.78577C9.30442 1.6263 8.36576 1.90095 7.69905 2.1756C8.03241 1.28077 8.97984 0.625153 9.19915 0.483398C4.52342 0.625153 0.549491 4.2399 0.0494606 9.07728C-0.00317423 9.62658 -0.0119467 10.1582 0.0143707 10.6897C0.286317 9.86579 0.786348 9.0507 1.725 8.62543C4.05848 7.56227 5.58489 8.78491 6.40073 9.0064C6.42705 9.01526 6.45336 9.02412 6.47091 9.03298C6.97094 9.16587 7.63765 9.65315 9.14651 9.87465C11.7519 10.2645 12.5853 8.74947 12.6555 8.30649C12.7169 7.96982 12.3836 7.87236 12.2344 7.84578ZM8.04995 5.01955L8.0675 4.99297C8.20786 5.09043 8.39208 5.23218 8.56753 5.44481C8.78684 5.71946 8.90088 5.98525 8.96229 6.16245V6.17131C7.40956 5.90551 7.94468 5.15244 8.04995 5.01955Z" fill="white"/>
</svg>
